<svg  viewBox="0 0 19 19" fill="none" xmlns="http://www.w3.org/2000/svg">
<path d="M10.883 15.4306H2.62398C2.4302 15.4299 2.2444 15.3569 2.10627 15.2272C1.96814 15.0974 1.88864 14.9213 1.88477 14.7363V3.43511C1.88477 3.24797 1.96265 3.06849 2.10128 2.93616C2.23991 2.80383 2.42793 2.72949 2.62398 2.72949H14.4515C14.6475 2.72949 14.8356 2.80383 14.9742 2.93616C15.1128 3.06849 15.1907 3.24797 15.1907 3.43511V9.78284" stroke="#003DFE" stroke-width="0.890625"/>
<path d="M1.88477 5.84668H15.1907" stroke="#003DFE" stroke-width="0.890625"/>
<path d="M4.88672 2.7294V1.3125" stroke="#003DFE" stroke-width="0.890625"/>
<path d="M12 2.7294V1.3125" stroke="#003DFE" stroke-width="0.890625"/>
<path d="M13.4245 16.3998C15.4625 16.3998 17.1147 14.8228 17.1147 12.8774C17.1147 10.932 15.4625 9.35498 13.4245 9.35498C11.3865 9.35498 9.73438 10.932 9.73438 12.8774C9.73438 14.8228 11.3865 16.3998 13.4245 16.3998Z" stroke="#003DFE" stroke-width="0.890625"/>
<path d="M13.4238 10.4009V12.9853L14.7152 13.9318" stroke="#003DFE" stroke-width="0.890625"/>
</svg>
