<svg width="18" height="18" viewBox="0 0 18 18" fill="none" xmlns="http://www.w3.org/2000/svg">
<g clip-path="url(#clip0_5440_105089)">
<path d="M3.09746 13.4825H4.49866V14.7783C4.49866 16.3302 5.28217 17.1136 6.86421 17.1136H14.91C16.4769 17.1136 17.268 16.3302 17.268 14.7783V6.77016C17.268 5.22579 16.4769 4.44231 14.91 4.44231H13.5087V3.22188C13.5087 1.66999 12.7177 0.886505 11.1432 0.886505H3.09746C1.52294 0.886505 0.731934 1.66999 0.731934 3.22188V11.1546C0.731934 12.7065 1.52294 13.4825 3.09746 13.4825ZM3.12005 12.2696C2.36672 12.2696 1.94484 11.8703 1.94484 11.0868V3.2897C1.94484 2.50622 2.36672 2.09938 3.12005 2.09938H11.1282C11.8664 2.09938 12.2958 2.50622 12.2958 3.2897V4.44231H6.86421C5.28217 4.44231 4.49866 5.21827 4.49866 6.77016V12.2696H3.12005ZM6.87925 15.9007C6.12592 15.9007 5.71157 15.4939 5.71157 14.7104V6.83795C5.71157 6.05447 6.12592 5.65519 6.87925 5.65519H14.8873C15.6331 5.65519 16.0551 6.05447 16.0551 6.83795V14.718C16.0551 15.4939 15.6331 15.9007 14.8873 15.9007H6.87925ZM10.9021 13.9119C11.2185 13.9119 11.4671 13.6558 11.4671 13.3168V11.358H13.3807C13.7347 11.358 14.021 11.0868 14.021 10.7629C14.021 10.4465 13.7347 10.1753 13.3807 10.1753H11.4671V8.22411C11.4671 7.8851 11.2185 7.63651 10.9021 7.63651C10.5857 7.63651 10.3296 7.8851 10.3296 8.22411V10.1753H8.34828C8.03187 10.1753 7.7456 10.4616 7.7456 10.7629C7.7456 11.0793 8.03187 11.358 8.34828 11.358H10.3296V13.3168C10.3296 13.6558 10.5857 13.9119 10.9021 13.9119Z" fill="#002FEF"/>
</g>
<defs>
<clipPath id="clip0_5440_105089">
<rect width="18" height="18" fill="white"/>
</clipPath>
</defs>
</svg>
