<svg  viewBox="0 0 16 16" fill="none" xmlns="http://www.w3.org/2000/svg">
<path d="M8.0012 5.51172C6.75557 5.51172 5.74219 6.45635 5.74219 7.61746C5.74219 8.77857 6.75557 9.7232 8.0012 9.7232C9.24683 9.7232 10.2602 8.77857 10.2602 7.61746C10.2602 6.45635 9.24683 5.51172 8.0012 5.51172ZM8.0012 8.93081C7.2243 8.93081 6.59226 8.34165 6.59226 7.61746C6.59226 6.89327 7.2243 6.30411 8.0012 6.30411C8.7781 6.30411 9.41014 6.89327 9.41014 7.61746C9.41014 8.34165 8.7781 8.93081 8.0012 8.93081Z" fill="#0032FF"/>
<path d="M7.51578 0.638209C7.53454 0.355116 7.78098 0.140713 8.06623 0.159329C12.2019 0.429259 15.5078 3.71096 15.7787 7.8158C15.7974 8.09888 15.5813 8.3434 15.296 8.36196C15.0108 8.38052 14.7644 8.16607 14.7457 7.88292C14.5088 4.29252 11.6157 1.42061 7.9983 1.18451C7.71306 1.16589 7.49703 0.921303 7.51578 0.638209Z" fill="#0032FF"/>
<path d="M9.89279 14.5373C9.90851 14.8206 9.68987 15.0629 9.40445 15.0785C5.26608 15.3047 1.58607 12.442 0.819146 8.39938C0.766304 8.12059 0.951145 7.85202 1.23205 7.79951C1.51295 7.747 1.78362 7.93044 1.83647 8.2093C2.50727 11.7453 5.7278 14.2505 9.3475 14.0526C9.63293 14.037 9.87706 14.254 9.89279 14.5373Z" fill="#0032FF"/>
<path d="M8.07976 2.5402C7.79506 2.5147 7.54344 2.72309 7.51775 3.00565C7.49207 3.28821 7.70204 3.53793 7.98674 3.56343C10.2974 3.77035 12.1386 5.59712 12.3479 7.89015C12.3737 8.17268 12.6254 8.38097 12.9101 8.35535C13.1948 8.3298 13.4047 8.07994 13.3789 7.79741C13.1244 5.01011 10.8885 2.79172 8.07976 2.5402Z" fill="#0032FF"/>
<path d="M9.10182 12.7167C9.38755 12.708 9.61205 12.471 9.60327 12.1875C9.59449 11.9039 9.35575 11.6811 9.07002 11.6898C6.75107 11.7605 4.70165 10.1671 4.21565 7.91572C4.15575 7.63833 3.88063 7.46164 3.60113 7.52109C3.32155 7.58048 3.14353 7.8536 3.20343 8.13099C3.79419 10.8676 6.28301 12.8027 9.10182 12.7167Z" fill="#0032FF"/>
</svg>
