<svg  viewBox="0 0 18 14" fill="none" xmlns="http://www.w3.org/2000/svg">
<path d="M11.2223 9.07497L9.12565 11.5686V7.95409C9.12565 7.75588 9.00565 7.77622 8.84231 7.74846C8.63565 7.71278 8.45896 7.90307 8.45896 8.14093V11.5725L6.36231 9.07497C6.22897 8.92434 6.01897 8.92828 5.89231 9.08289C5.76897 9.2375 5.76897 9.47934 5.89231 9.63395L8.55896 12.8055C8.68896 12.9601 8.89896 12.9601 9.02896 12.8055L11.6956 9.63395C11.8223 9.47536 11.819 9.22561 11.689 9.07497C11.559 8.92831 11.3523 8.92831 11.2223 9.07497Z" fill="#003DFE" stroke="#003DFE" stroke-width="0.5"/>
<path d="M16.6667 1.00098H1.33334C1.15 1.00098 1 1.17937 1 1.39743V6.94758C1 7.16564 1.15 7.34404 1.33334 7.34404H16.6667C16.85 7.34404 17 7.16564 17 6.94758V1.39743C17 1.17937 16.85 1.00098 16.6667 1.00098ZM16.3333 6.55113H1.66669V1.79385H16.3333V6.55113Z" fill="#003DFE" stroke="#003DFE" stroke-width="0.5"/>
</svg>
